<svg xmlns="http://www.w3.org/2000/svg" xmlns:xlink="http://www.w3.org/1999/xlink" viewBox="0 0 309.3 242.6"><defs><style>.cls-1{fill:none;}.cls-2,.cls-8{fill:#b99dff;}.cls-2{opacity:0.3;}.cls-3{fill:#566df8;}.cls-4{fill:#6c54af;}.cls-5{fill:#e6e6e6;}.cls-6{fill:#b1a0d8;}.cls-7{fill:#fff;}.cls-9{fill:#b3b3b3;}.cls-10{fill:#2a2a2a;}.cls-11{fill:#b2614e;}.cls-12{fill:#ffb78f;}.cls-13{fill:#90bfe8;}.cls-14{clip-path:url(#clip-path);}</style><clipPath id="clip-path"><path class="cls-1" d="M183.42,163a60.55,60.55,0,0,1-17.14-11.92c.18-1.12.5-3.08,1-5.3,1.12-5.24,3.06-11.88,5.71-11.95,1.61,0,2.38,1.7,2.69,4,4.85-6.61,10.14-12.7,12.22-11.09,2.93,2.26-4,13-4,13a6.71,6.71,0,0,1,5.16,4.53s4.24,1.47,4.51,3.57c.23,1.82-2.79,6.51-6.66,11.17C185.79,160.4,184.61,161.73,183.42,163Z"/></clipPath></defs><g id="Layer_2" data-name="Layer 2"><g id="OBJECTS"><path class="cls-2" d="M215.25,233.68c26.15,11.45,58.32,14.71,77.86-7.5s20.74-54.67,7.07-80.3c-12.93-24.22-35.68-40.95-49.27-64.75C243.17,67.58,239.85,51.67,232.28,38c-14.89-26.89-46.91-41.84-74-37.16-25.68,4.45-45.36,28.78-66.22,49C81.14,60.44,65,67.11,51.45,74.86c-14.71,8.41-28.37,17.26-38.29,32.08C-6,135.53-2.31,158.12,11.84,179.76S62.52,208.61,91,201.93C136.93,191.17,172.72,215.06,215.25,233.68Z"/><path class="cls-3" d="M281,203c4.91-7.24,9.2-13.19,11.06-21.74s1.09-17.93-3.56-25.34-13.57-12.37-22.21-11c-7.62,1.23-13.89,7-17.64,13.77s-5.38,14.44-7,22a18.79,18.79,0,0,0-17.89-10.79,20,20,0,0,0-17,12.47,21.41,21.41,0,0,0,3.45,20.92"/><polygon class="cls-4" points="253.89 203.28 202.41 203.28 188.17 165.03 239.65 165.03 253.89 203.28"/><rect class="cls-4" x="133.13" y="65.84" width="159.11" height="99.29"/><rect class="cls-5" x="124.99" y="65.84" width="159.11" height="99.29"/><rect class="cls-6" x="124.99" y="66.04" width="159.11" height="98.99"/><rect class="cls-4" x="124.99" y="146.72" width="159.11" height="18.41"/><path class="cls-7" d="M209,155.87a4.48,4.48,0,1,1-4.48-4.47A4.49,4.49,0,0,1,209,155.87Z"/><polygon class="cls-6" points="245.75 203.28 194.27 203.28 180.03 165.03 231.51 165.03 245.75 203.28"/><polygon class="cls-4" points="240.66 189.85 160.5 189.85 155.41 203.28 245.75 203.28 240.66 189.85"/><rect class="cls-8" x="139.8" y="84.45" width="67.96" height="54.33"/><rect class="cls-9" x="201.45" y="76.11" width="67.96" height="8.34"/><rect class="cls-3" x="139.8" y="84.45" width="67.96" height="8.34"/><rect class="cls-7" x="201.45" y="76.11" width="67.96" height="54.33"/><rect class="cls-3" x="201.45" y="76.11" width="67.96" height="8.34"/><path class="cls-10" d="M165.56,128.36a7.37,7.37,0,1,1-10-10.4c1.54-.94,3.37-1.29,5-2.1a9.76,9.76,0,0,0,5.24-8.69c2.83.14,6,.73,8.88.88-.17,1.78,1.62,3.41,3.22,4.21a12.83,12.83,0,0,0,5.25,1,14.88,14.88,0,0,1,5.28.84,7.17,7.17,0,0,1-2.53,13.76"/><polygon class="cls-11" points="179.3 126.38 178.15 131.14 166.11 130.49 167.51 126.8 168.45 118.16 176.72 112.65 179.3 126.38"/><path class="cls-10" d="M173.29,118.08a10.14,10.14,0,0,1-5.45,5.74l.58-5.4,2.47-1.65Z"/><path class="cls-11" d="M163.86,118.76c4.81,4.67,9.94-.11,9.94-.11l4.11-9.38.22-.49v-.3c0-.1,0-.21,0-.35v-.21s0-.09,0-.15,0-.22,0-.34a.13.13,0,0,1,0-.06,12.14,12.14,0,0,0-2-5.93,8.12,8.12,0,0,0-6.48-3.34h-.11a5.58,5.58,0,0,0-1.09,0l-.4.07-.49.13a5.67,5.67,0,0,0-1,.42,8.46,8.46,0,0,0-3.32,3.73c-.07.16-.15.31-.22.47l-.12.27a.49.49,0,0,0,0,.11c-.08.17-.15.35-.22.53,0,0,0,0,0,0l0,.1,0,.07h0c-.06.15-.11.3-.16.46C160.72,109.6,161.19,116.16,163.86,118.76Z"/><path class="cls-10" d="M166.52,113.76a1.34,1.34,0,0,1-1-.48,1.35,1.35,0,0,1-.29-1l.49-3.81,1,.13-.5,3.81a.34.34,0,0,0,.07.26.39.39,0,0,0,.24.12Z"/><path class="cls-10" d="M169.1,109c0,.29.14.54.35.55s.39-.22.4-.51-.14-.53-.35-.54S169.12,108.72,169.1,109Z"/><path class="cls-10" d="M163.38,108.72c0,.29.14.54.35.55s.39-.22.41-.51-.15-.53-.35-.54S163.4,108.43,163.38,108.72Z"/><path class="cls-10" d="M170.52,106.62a1.67,1.67,0,0,1,.45.2c.12.08.21.21.18.32s-.35.24-.62.25a4.79,4.79,0,0,1-1.75-.28c-.19-.07-.4-.17-.46-.31-.13-.34.48-.41.73-.41A4.57,4.57,0,0,1,170.52,106.62Z"/><path class="cls-10" d="M164.52,106.15a1.09,1.09,0,0,1,.41.12.29.29,0,0,1,.19.26c0,.17-.28.27-.51.32a4,4,0,0,1-1.55,0c-.17,0-.37-.09-.43-.21-.15-.28.37-.44.59-.48A4.05,4.05,0,0,1,164.52,106.15Z"/><path class="cls-7" d="M169.38,113.74a1.12,1.12,0,0,1-2.21.31"/><path class="cls-11" d="M175.79,108.16a1.9,1.9,0,0,1,1.69-.93,2.69,2.69,0,0,1,1.81.8,3.39,3.39,0,0,1-3.56,5.61"/><path class="cls-10" d="M178.42,111.68h-1a2.69,2.69,0,0,0-.86-2l.32-.87,1.51,0,0,1-.51,0A3.74,3.74,0,0,1,178.42,111.68Z"/><path class="cls-10" d="M162.87,103.23l.37,0a5.29,5.29,0,0,0,4.27-2.38,8.59,8.59,0,0,0,1-1.85,18.39,18.39,0,0,0,2.25,4.89,9.07,9.07,0,0,0,3.42,3.29,4.81,4.81,0,0,0,3.94.21.13.13,0,0,1,0-.06,12.14,12.14,0,0,0-2-5.93,8.12,8.12,0,0,0-6.48-3.34h-.11a5.58,5.58,0,0,0-1.09,0l-.4.07-.49.13a5.67,5.67,0,0,0-1,.42,8.46,8.46,0,0,0-3.32,3.73c-.07.16-.15.31-.22.47Z"/><path class="cls-7" d="M151,138.78s3.39-7.23,5.08-8.75c2-1.83,11.4-3.46,11.4-3.46s3.66,5.7,11.8,0c0,0,9.56.41,12,2.44s5.5,9.77,5.5,9.77"/><polygon class="cls-12" points="227.2 120.93 232.94 125.43 241.41 121.63 239.21 103.6 232.69 107.34 229.25 109.31 229.02 114.29 228.88 117.28 227.2 120.93"/><path class="cls-10" d="M232.69,107.34l-3.44,2-.23,5a10.32,10.32,0,0,0,6-5.45C234.23,108.34,233.47,107.84,232.69,107.34Z"/><path class="cls-12" d="M239.94,99.64l-.05.14-.17.37-.18.45-.16.36-3.72,8.76s-5.16,4.92-10.1.22c-2.78-2.65-3.3-9.48-1.58-14.65,0-.1.06-.2.1-.3.16-.45.33-.88.52-1.29l.11-.24s0,0,0,0a13.07,13.07,0,0,1,.79-1.38l.09-.12a.21.21,0,0,1,0-.06s0,0,0,0a3.15,3.15,0,0,1,.22-.29c.1-.14.21-.27.32-.4a7.55,7.55,0,0,1,.8-.8,5.66,5.66,0,0,1,4-1.44,8.27,8.27,0,0,1,6.73,3.32,12.56,12.56,0,0,1,2.13,6.39.28.28,0,0,0,0,.09,1.69,1.69,0,0,0,0,.23c0,.16,0,.3,0,.41v.3Z"/><path class="cls-10" d="M228.21,104.83a1.41,1.41,0,0,1-1-.47,1.36,1.36,0,0,1-.31-1l.46-3.88,1,.12-.47,3.88a.38.38,0,0,0,.08.27.42.42,0,0,0,.25.12Z"/><path class="cls-10" d="M230.78,100c0,.29.15.54.36.55s.39-.23.4-.52-.15-.54-.36-.55S230.79,99.69,230.78,100Z"/><path class="cls-10" d="M225,99.76c0,.29.15.54.36.55s.39-.23.4-.52-.15-.54-.36-.55S225,99.46,225,99.76Z"/><path class="cls-10" d="M232.24,97.37a1.2,1.2,0,0,1,.44.25.49.49,0,0,1,.15.45c-.06.26-.39.37-.66.41a3.46,3.46,0,0,1-1.77-.26c-.2-.09-.41-.22-.45-.42-.1-.47.54-.62.8-.64A3.44,3.44,0,0,1,232.24,97.37Z"/><path class="cls-10" d="M226.1,97a.89.89,0,0,1,.41.15.42.42,0,0,1,.2.36c0,.24-.28.39-.51.46a3,3,0,0,1-1.57,0,.6.6,0,0,1-.45-.29c-.15-.4.38-.62.59-.68A3.14,3.14,0,0,1,226.1,97Z"/><path class="cls-10" d="M229,106.3a1.64,1.64,0,0,1-.53-.09l.33-.95a.64.64,0,0,0,.54-.06.69.69,0,0,0,.29-.46l1,.12A1.63,1.63,0,0,1,229,106.3Z"/><path class="cls-10" d="M239.94,99.64l-.05.14h-.08a10.26,10.26,0,0,1-3.18-6.44c-4.07.28-8.47-.09-10.55-1.17a1.84,1.84,0,0,1-.43-.3,1.46,1.46,0,0,1-.32-2c2-3.3,9.92-1.77,12.45,2.31a12.56,12.56,0,0,1,2.13,6.39.28.28,0,0,0,0,.09,1.69,1.69,0,0,0,0,.23c0,.16,0,.3,0,.41v.3Z"/><path class="cls-12" d="M237.68,99.23a1.94,1.94,0,0,1,1.8-.77,2.74,2.74,0,0,1,1.75,1,3.45,3.45,0,0,1-4.16,5.32"/><path class="cls-10" d="M239.77,103.16l-.9-.42a2.78,2.78,0,0,0,0-2.21l.64-.66,1.42.58-.38.92-.5-.2A3.67,3.67,0,0,1,239.77,103.16Z"/><path class="cls-3" d="M212.11,130.44s2.9-10.35,6-11.6,11-1.63,11-1.63,4.59,4.48,11.75,0c0,0,11.44-.61,13.68,1.22s5.42,12,5.42,12"/><path class="cls-12" d="M72.11,127.39l21.16,2.21.36-10,.16-4.34h0a11.06,11.06,0,0,0,15.72-1.4c3.64-4.46,1.81-11.86,1.12-17.7-.76-6.42-.9-12.28-3.36-18.21a1.22,1.22,0,0,0-.07-.17,20.74,20.74,0,0,0-2.55-4.52,15,15,0,0,0-3.6-3.42,15.55,15.55,0,0,0-8.67-2.32c-6.57,0-13.47,3-16.63,8.92a18.9,18.9,0,0,0-2,9.23,27,27,0,0,0,.27,3.25c.61,4.25,2.27,8.26,3.73,12.29Z"/><path class="cls-10" d="M89.89,111.09a22.83,22.83,0,0,0,3.74,8.48l.16-4.34h0C92.52,113.84,91.25,112.44,89.89,111.09Z"/><path class="cls-8" d="M73.8,85.94l31.06-12.43a15.22,15.22,0,0,0-3.81-3.7,15.55,15.55,0,0,0-8.67-2.32c-6.57,0-13.47,3-16.63,8.92A19,19,0,0,0,73.8,85.94Z"/><path class="cls-12" d="M109.08,90.27a14.24,14.24,0,0,0,3.22,5.23,9.31,9.31,0,0,1,1,1.15,2.2,2.2,0,0,1,.45,1.45,2.52,2.52,0,0,1-1.19,1.69,5.91,5.91,0,0,1-5.36.67"/><path class="cls-10" d="M105.16,73l-.51.21L73.79,85.64a27,27,0,0,0,.27,3.25c.61,4.25,2.27,8.26,3.73,12.29a8.72,8.72,0,0,0,6.81,1.66,10.52,10.52,0,0,0,6.8-4.21c-1.81.92-4,1.41-5.84.49a5.49,5.49,0,0,1-3-5,5.23,5.23,0,0,1,3.46-4.65,4.86,4.86,0,0,1,5.39,1.74A20.53,20.53,0,0,0,93.7,78.07"/><path class="cls-10" d="M89,96.62A8.89,8.89,0,0,0,85.64,94l.52-1.13a10.28,10.28,0,0,1,2.78,1.89l.16-2.5,1.25.08-.26,4Z"/><path class="cls-10" d="M108.08,104.45a2.74,2.74,0,0,1-2.74-2.44l1.24-.14a1.56,1.56,0,0,0,.65,1.08,1.54,1.54,0,0,0,1.24.2l.33,1.21A3,3,0,0,1,108.08,104.45Z"/><path class="cls-10" d="M105.64,92.67c0,.74.34,1.33.73,1.32s.71-.6.7-1.33-.34-1.33-.73-1.32S105.63,91.94,105.64,92.67Z"/><path class="cls-10" d="M104,89.85c-.37,0-.8,0-1-.32a.68.68,0,0,1,0-.7,1.85,1.85,0,0,1,.55-.49,6.72,6.72,0,0,1,2.92-1,2.24,2.24,0,0,1,1.15.11,1,1,0,0,1,.66.88C108.29,89.47,104.77,89.79,104,89.85Z"/><path class="cls-10" d="M93.22,78.21c2.18,1.84,6.15,2.24,9.3.94s5.22-4.21,4.84-6.81"/><rect class="cls-4" x="72.06" y="76.23" width="49.08" height="1.25" transform="translate(-21.59 41.23) rotate(-21.73)"/><path class="cls-3" d="M107.7,190.05l-1.32,13.33H25.19s3.26-66.74,16.69-75.69c9.69-6.46,31-3.83,31-3.83l20.47,3.85s26.06,8.53,31.14,15.24"/><polygon class="cls-13" points="42.44 203.38 42.44 174.49 38.72 203.38 42.44 203.38"/><path class="cls-13" d="M69.44,113.64c-3.28-1.09-6.7-2.09-10.14-1.73s-6.91,2.42-7.94,5.71.42,6.51,1.79,9.51c2.4,5.24,4.85,10.56,8.52,15s8.79,8,14.53,8.56a22.21,22.21,0,0,0,11.46-2.34c7-3.27,13.3-7.91,19.53-12.38,1.59-1.13,3.31-3.13,1-4.54a193.89,193.89,0,0,0-26.6-13.25C77.61,116.53,73.55,115,69.44,113.64Z"/><rect class="cls-10" x="6.52" y="202.65" width="296.25" height="1.25"/><path class="cls-12" d="M183.42,163a60.55,60.55,0,0,1-17.14-11.92c.18-1.12.5-3.08,1-5.3,1.12-5.24,3.06-11.88,5.71-11.95,1.61,0,2.38,1.7,2.69,4,4.85-6.61,10.14-12.7,12.22-11.09,2.93,2.26-4,13-4,13a6.71,6.71,0,0,1,5.16,4.53s4.24,1.47,4.51,3.57c.23,1.82-2.79,6.51-6.66,11.17C185.79,160.4,184.61,161.73,183.42,163Z"/><g class="cls-14"><path class="cls-10" d="M169.6,138.85a3.54,3.54,0,0,1-2.31-.83l.81-1a2.36,2.36,0,0,0,2.83.11,3.22,3.22,0,0,0,1.13-1.78,11.1,11.1,0,0,0,.32-2.39l1.25.07a12.33,12.33,0,0,1-.36,2.67,4.55,4.55,0,0,1-1.6,2.44A3.52,3.52,0,0,1,169.6,138.85Z"/></g><path class="cls-3" d="M188.07,165s-17.91,30.91-37.79,44.2c-6,4-12.22,6.44-18.16,5.88a23.25,23.25,0,0,1-13-5.43c-8.85-7.4-11.42-19.6-11.42-19.6L124.49,143c5.08,6.72,10.58,26.45,10.58,26.45l27.87-22.18Z"/><polygon class="cls-13" points="135.06 169.4 137 174.79 155.22 153.37 135.06 169.4"/><path class="cls-8" d="M150.28,209.2c-6,4-12.22,6.44-18.16,5.88a23.25,23.25,0,0,1-13-5.43c3-4.06,16.3-19.51,30.49-1.33C149.84,208.62,150.07,208.91,150.28,209.2Z"/><path d="M19,203.31l-1.25-.06c.75-13.87,7-27.13,16-33.79a24.65,24.65,0,0,1,29.89,0c8.53,6.33,17.49,19.23,18.26,33.77l-1.24.06c-.76-14.13-9.47-26.67-17.77-32.83a23.84,23.84,0,0,0-14.2-4.83h0a23.81,23.81,0,0,0-14.19,4.81C25.82,176.91,19.73,189.81,19,203.31Z"/><path d="M279.35,203.68l-1-.8a15.72,15.72,0,0,0,2.52-15.28,14.65,14.65,0,0,0-12.35-9.08,13.7,13.7,0,0,0-13,7.82l-1.18-.12c-1.17-5.63-2.39-11.46-5.22-16.55-3.08-5.55-7.93-9.35-13-10.16-6-1-12.67,2.36-16.26,8.07-3.17,5.06-4.13,11.91-2.62,18.81,1.3,6,4.24,10.32,7.65,15.33l.67,1-1,.7-.67-1c-3.48-5.12-6.48-9.54-7.84-15.76-1.57-7.22-.55-14.41,2.79-19.74,3.85-6.13,11-9.68,17.52-8.64,5.42.87,10.6,4.9,13.87,10.78,2.63,4.74,3.89,10,5,15.21a15.1,15.1,0,0,1,13.38-7,15.71,15.71,0,0,1,13.44,9.87A16.77,16.77,0,0,1,279.35,203.68Z"/><path class="cls-7" d="M18.22,146A6.63,6.63,0,0,1,12.5,143a7.92,7.92,0,0,1-.41-7.94,6.81,6.81,0,0,1,6.34-3.55h0a7.21,7.21,0,0,1,.74,14.37h0A8.15,8.15,0,0,1,18.22,146Zm.21-13.17a5.6,5.6,0,0,0-5.23,2.89,6.6,6.6,0,0,0,.34,6.65,5.62,5.62,0,0,0,5.53,2.34h0a6,6,0,0,0-.61-11.88Z"/><path d="M174.64,55h-.88l-5.91-5.91-4.74,4.74-1-.25-7-21.75.79-.79,21.75,7,.25,1L173,43.89l5.91,5.91v.88Zm-7.23-7.24h.88l5.91,5.91,3.4-3.39-5.91-5.91v-.89l4.59-4.59-19.62-6.29L163,52.18Z"/></g></g></svg>
